<svg xmlns="http://www.w3.org/2000/svg" xmlns:xlink="http://www.w3.org/1999/xlink" width="1200" zoomAndPan="magnify" viewBox="0 0 900 525.000007" height="700" preserveAspectRatio="xMidYMid meet" version="1.0"><defs><g/><clipPath id="e2113d85d7"><path d="M 53.253906 115.085938 L 320.816406 115.085938 L 320.816406 382.644531 L 53.253906 382.644531 Z M 53.253906 115.085938 " clip-rule="nonzero"/></clipPath><clipPath id="ecf8a488f9"><path d="M 187.035156 115.085938 C 113.152344 115.085938 53.253906 174.980469 53.253906 248.867188 C 53.253906 322.75 113.152344 382.644531 187.035156 382.644531 C 260.921875 382.644531 320.816406 322.75 320.816406 248.867188 C 320.816406 174.980469 260.921875 115.085938 187.035156 115.085938 Z M 187.035156 115.085938 " clip-rule="nonzero"/></clipPath><clipPath id="eab926482d"><path d="M 56.511719 118.765625 L 316.984375 118.765625 L 316.984375 379 L 56.511719 379 Z M 56.511719 118.765625 " clip-rule="nonzero"/></clipPath><clipPath id="f0a754860b"><path d="M 86.433594 144.03125 L 287.632812 144.03125 L 287.632812 211.164062 L 86.433594 211.164062 Z M 86.433594 144.03125 " clip-rule="nonzero"/></clipPath></defs><g clip-path="url(#e2113d85d7)"><g clip-path="url(#ecf8a488f9)"><path fill="#068225" d="M 53.253906 115.085938 L 320.816406 115.085938 L 320.816406 382.644531 L 53.253906 382.644531 Z M 53.253906 115.085938 " fill-opacity="1" fill-rule="nonzero"/></g></g><g clip-path="url(#eab926482d)"><path fill="#ffffff" d="M 308.652344 283.546875 C 305.351562 294.777344 300.316406 305.433594 294.066406 315.246094 C 288.90625 323.230469 283.039062 330.734375 276.445312 337.5625 C 275.59375 338.496094 274.640625 339.328125 273.734375 340.210938 C 272.816406 341.074219 271.921875 341.96875 270.980469 342.808594 L 268.121094 345.296875 L 266.695312 346.539062 L 265.210938 347.71875 L 262.25 350.082031 C 261.25 350.847656 260.214844 351.574219 259.199219 352.324219 C 257.191406 353.859375 255.054688 355.210938 252.964844 356.632812 C 252.664062 356.835938 252.347656 357.050781 252.015625 357.269531 C 251.675781 357.476562 251.320312 357.6875 250.953125 357.910156 C 250.214844 358.351562 249.421875 358.828125 248.574219 359.332031 C 246.90625 360.382812 244.929688 361.367188 242.796875 362.503906 C 242.257812 362.78125 241.71875 363.082031 241.152344 363.355469 C 240.582031 363.621094 240 363.890625 239.40625 364.164062 C 238.222656 364.710938 236.992188 365.28125 235.726562 365.867188 C 233.125 366.882812 230.414062 368.101562 227.457031 369.050781 C 215.789062 373.28125 201.222656 375.898438 186.605469 375.957031 C 171.988281 375.898438 157.421875 373.28125 145.75 369.050781 C 142.792969 368.101562 140.085938 366.882812 137.484375 365.867188 C 136.21875 365.28125 134.988281 364.710938 133.800781 364.164062 C 133.210938 363.890625 132.628906 363.621094 132.058594 363.355469 C 131.488281 363.082031 130.953125 362.78125 130.414062 362.503906 C 128.28125 361.371094 126.304688 360.382812 124.636719 359.332031 C 123.789062 358.828125 122.996094 358.351562 122.257812 357.910156 C 121.890625 357.691406 121.535156 357.476562 121.195312 357.269531 C 120.863281 357.050781 120.546875 356.835938 120.246094 356.636719 C 112.304688 351.429688 104.84375 345.519531 98.0625 338.878906 C 90.910156 331.734375 84.660156 323.734375 79.144531 315.246094 C 72.894531 305.433594 67.859375 294.777344 64.558594 283.546875 C 61.125 272.355469 59.535156 260.609375 59.433594 248.859375 C 59.535156 237.113281 61.125 225.367188 64.558594 214.171875 C 67.859375 202.941406 72.894531 192.289062 79.144531 182.476562 C 84.304688 174.488281 90.171875 166.984375 96.765625 160.15625 C 97.617188 159.226562 98.570312 158.390625 99.472656 157.511719 C 100.394531 156.644531 101.289062 155.753906 102.230469 154.910156 L 105.085938 152.425781 L 106.515625 151.179688 L 107.996094 150.003906 L 110.957031 147.636719 C 111.960938 146.871094 112.996094 146.148438 114.011719 145.394531 C 116.015625 143.859375 118.152344 142.507812 120.246094 141.085938 C 120.546875 140.882812 120.863281 140.671875 121.191406 140.449219 C 121.535156 140.246094 121.886719 140.03125 122.257812 139.808594 C 122.996094 139.367188 123.789062 138.894531 124.632812 138.390625 C 126.304688 137.339844 128.28125 136.351562 130.414062 135.214844 C 130.949219 134.941406 131.488281 134.636719 132.058594 134.367188 C 132.628906 134.101562 133.207031 133.832031 133.800781 133.554688 C 134.988281 133.007812 136.21875 132.441406 137.484375 131.855469 C 140.082031 130.835938 142.792969 129.617188 145.75 128.671875 C 157.421875 124.441406 171.988281 121.824219 186.605469 121.761719 C 201.222656 121.824219 215.789062 124.441406 227.457031 128.671875 C 230.414062 129.617188 233.125 130.835938 235.726562 131.855469 C 236.992188 132.441406 238.21875 133.007812 239.40625 133.554688 C 240 133.832031 240.582031 134.101562 241.152344 134.363281 C 241.71875 134.636719 242.257812 134.941406 242.792969 135.214844 C 244.925781 136.351562 246.90625 137.339844 248.574219 138.386719 C 249.417969 138.894531 250.214844 139.367188 250.949219 139.808594 C 251.320312 140.03125 251.675781 140.242188 252.015625 140.449219 C 252.34375 140.671875 252.660156 140.882812 252.964844 141.085938 C 260.902344 146.289062 268.363281 152.199219 275.144531 158.839844 C 282.296875 165.984375 288.550781 173.988281 294.0625 182.472656 C 300.316406 192.285156 305.351562 202.941406 308.652344 214.171875 C 312.085938 225.367188 313.671875 237.113281 313.773438 248.859375 C 313.671875 260.609375 312.085938 272.355469 308.652344 283.546875 Z M 316.699219 248.773438 L 316.695312 248.761719 C 316.589844 236.769531 314.976562 224.765625 311.480469 213.320312 C 308.121094 201.839844 302.972656 190.945312 296.554688 180.9375 L 293.46875 176.300781 C 293.46875 176.300781 292.578125 175.050781 291.242188 173.183594 C 289.953125 171.273438 287.980469 168.921875 286.101562 166.5 C 284.074219 164.203125 282.128906 161.832031 280.492188 160.214844 C 278.902344 158.558594 277.84375 157.453125 277.84375 157.453125 C 277.84375 157.453125 277.574219 157.179688 277.09375 156.714844 C 276.609375 156.25 275.921875 155.582031 275.097656 154.785156 C 273.484375 153.144531 271.148438 151.167969 268.851562 149.136719 C 267.675781 148.160156 266.464844 147.222656 265.34375 146.320312 C 264.78125 145.875 264.238281 145.441406 263.722656 145.03125 C 263.191406 144.648438 262.6875 144.285156 262.21875 143.949219 C 260.355469 142.601562 259.113281 141.707031 259.113281 141.707031 C 259.113281 141.707031 258.84375 141.488281 258.40625 141.203125 C 257.972656 140.914062 257.394531 140.527344 256.820312 140.140625 C 255.660156 139.367188 254.503906 138.59375 254.503906 138.59375 C 254.199219 138.386719 253.875 138.167969 253.539062 137.9375 C 253.1875 137.726562 252.828125 137.507812 252.449219 137.28125 C 251.695312 136.828125 250.882812 136.339844 250.019531 135.820312 C 248.3125 134.746094 246.292969 133.730469 244.109375 132.566406 C 243.5625 132.28125 243.011719 131.972656 242.429688 131.695312 C 241.847656 131.421875 241.25 131.144531 240.644531 130.863281 C 239.433594 130.300781 238.175781 129.71875 236.878906 129.117188 C 234.21875 128.070312 231.445312 126.824219 228.417969 125.851562 C 216.476562 121.511719 201.5625 118.824219 186.605469 118.765625 C 171.648438 118.824219 156.734375 121.511719 144.789062 125.851562 C 141.765625 126.824219 138.988281 128.070312 136.332031 129.117188 C 135.03125 129.71875 133.777344 130.300781 132.5625 130.863281 C 131.957031 131.144531 131.359375 131.421875 130.777344 131.695312 C 130.199219 131.972656 129.644531 132.28125 129.097656 132.566406 C 126.914062 133.730469 124.894531 134.746094 123.1875 135.820312 C 122.324219 136.339844 121.511719 136.828125 120.757812 137.28125 C 120.382812 137.507812 120.019531 137.730469 119.671875 137.9375 C 119.332031 138.167969 119.011719 138.386719 118.703125 138.59375 C 118.703125 138.59375 117.546875 139.367188 116.390625 140.140625 C 115.8125 140.527344 115.234375 140.914062 114.800781 141.203125 C 114.363281 141.488281 114.09375 141.707031 114.09375 141.707031 C 114.09375 141.707031 112.851562 142.601562 110.988281 143.949219 C 110.523438 144.285156 110.019531 144.648438 109.484375 145.03125 C 108.96875 145.441406 108.425781 145.875 107.863281 146.320312 C 106.746094 147.222656 105.535156 148.160156 104.355469 149.136719 C 102.0625 151.167969 99.722656 153.144531 98.113281 154.785156 C 97.285156 155.582031 96.597656 156.25 96.117188 156.714844 C 95.632812 157.179688 95.363281 157.453125 95.363281 157.453125 C 95.363281 157.453125 94.304688 158.558594 92.714844 160.214844 C 91.082031 161.832031 89.136719 164.203125 87.109375 166.5 C 85.226562 168.921875 83.253906 171.273438 81.96875 173.183594 C 80.628906 175.054688 79.738281 176.300781 79.738281 176.300781 L 76.65625 180.9375 C 70.238281 190.945312 65.089844 201.84375 61.726562 213.320312 C 58.234375 224.765625 56.621094 236.769531 56.515625 248.765625 L 56.511719 248.773438 L 56.511719 248.945312 L 56.515625 248.957031 C 56.621094 260.953125 58.234375 272.957031 61.726562 284.398438 C 65.089844 295.878906 70.238281 306.777344 76.65625 316.785156 L 79.738281 321.421875 C 79.738281 321.421875 80.632812 322.667969 81.96875 324.539062 C 83.257812 326.449219 85.226562 328.800781 87.109375 331.21875 C 89.136719 333.515625 91.082031 335.886719 92.714844 337.503906 C 94.304688 339.160156 95.363281 340.269531 95.363281 340.269531 C 95.363281 340.269531 95.632812 340.542969 96.117188 341.007812 C 96.597656 341.472656 97.285156 342.136719 98.113281 342.933594 C 99.722656 344.578125 102.0625 346.554688 104.355469 348.582031 C 105.535156 349.5625 106.746094 350.5 107.863281 351.398438 C 108.425781 351.847656 108.96875 352.277344 109.484375 352.6875 C 110.019531 353.074219 110.523438 353.4375 110.988281 353.773438 C 112.851562 355.117188 114.09375 356.011719 114.09375 356.011719 C 114.09375 356.011719 114.363281 356.234375 114.800781 356.515625 C 115.238281 356.804688 115.8125 357.191406 116.390625 357.578125 C 117.546875 358.351562 118.703125 359.128906 118.703125 359.128906 C 119.011719 359.335938 119.335938 359.554688 119.671875 359.78125 C 120.019531 359.992188 120.382812 360.210938 120.757812 360.4375 C 121.511719 360.894531 122.324219 361.378906 123.1875 361.898438 C 124.894531 362.976562 126.917969 363.992188 129.097656 365.152344 C 129.648438 365.4375 130.199219 365.746094 130.777344 366.027344 C 131.363281 366.300781 131.957031 366.578125 132.5625 366.859375 C 133.777344 367.421875 135.035156 368.003906 136.332031 368.605469 C 138.992188 369.648438 141.765625 370.894531 144.789062 371.871094 C 156.734375 376.207031 171.648438 378.894531 186.605469 378.953125 C 201.5625 378.894531 216.476562 376.207031 228.421875 371.867188 C 231.445312 370.894531 234.21875 369.648438 236.878906 368.601562 C 238.175781 368.003906 239.433594 367.421875 240.644531 366.855469 C 241.253906 366.574219 241.847656 366.296875 242.429688 366.027344 C 243.011719 365.746094 243.5625 365.4375 244.113281 365.152344 C 246.292969 363.992188 248.3125 362.976562 250.023438 361.898438 C 250.886719 361.378906 251.695312 360.890625 252.453125 360.4375 C 252.828125 360.210938 253.191406 359.992188 253.539062 359.78125 C 253.875 359.550781 254.199219 359.335938 254.507812 359.128906 C 254.507812 359.128906 255.660156 358.351562 256.820312 357.578125 C 257.394531 357.191406 257.972656 356.804688 258.40625 356.515625 C 258.84375 356.234375 259.113281 356.011719 259.113281 356.011719 C 259.113281 356.011719 260.355469 355.117188 262.21875 353.773438 C 262.6875 353.4375 263.191406 353.074219 263.722656 352.6875 C 264.238281 352.277344 264.78125 351.847656 265.34375 351.398438 C 266.464844 350.5 267.675781 349.5625 268.851562 348.582031 C 271.148438 346.554688 273.484375 344.578125 275.097656 342.933594 C 275.921875 342.136719 276.609375 341.472656 277.09375 341.007812 C 277.574219 340.542969 277.84375 340.269531 277.84375 340.269531 C 277.84375 340.269531 278.902344 339.160156 280.492188 337.503906 C 282.128906 335.886719 284.074219 333.515625 286.101562 331.21875 C 287.980469 328.800781 289.953125 326.445312 291.242188 324.539062 C 292.578125 322.667969 293.46875 321.421875 293.46875 321.421875 L 296.554688 316.785156 C 302.972656 306.777344 308.121094 295.878906 311.480469 284.398438 C 314.976562 272.953125 316.589844 260.953125 316.695312 248.957031 L 316.699219 248.945312 L 316.699219 248.773438 " fill-opacity="1" fill-rule="nonzero"/></g><g clip-path="url(#f0a754860b)"><path fill="#ffffff" d="M 86.433594 209.820312 L 173.898438 144.03125 L 218.96875 176.0625 L 234.3125 171.652344 L 287.632812 211.164062 L 225.492188 211.164062 L 235.082031 198.503906 L 217.433594 205.214844 L 233.738281 193.132812 L 222.996094 192.558594 L 232.78125 179.324219 L 172.171875 211.164062 L 158.9375 211.164062 L 170.058594 197.738281 L 139.5625 202.914062 L 161.238281 185.460938 L 156.25 177.597656 L 171.019531 158.226562 L 86.433594 209.820312 " fill-opacity="1" fill-rule="nonzero"/></g><g fill="#ffffff" fill-opacity="1"><g transform="translate(80.50081, 267.863057)"><g><path d="M 47.1875 0 L 12.109375 0 C 4.890625 -7.925781 1.28125 -17.113281 1.28125 -27.5625 C 1.28125 -38.113281 4.863281 -47.328125 12.03125 -55.203125 L 47.1875 -55.203125 L 47.1875 -38.09375 L 23.921875 -38.09375 C 22.109375 -34.75 21.203125 -31.238281 21.203125 -27.5625 C 21.203125 -23.789062 22.109375 -20.304688 23.921875 -17.109375 L 47.1875 -17.109375 Z M 47.1875 0 "/></g></g></g><g fill="#ffffff" fill-opacity="1"><g transform="translate(137.721619, 267.863057)"><g><path d="M 38.671875 0 L 22.84375 0 L 22.84375 -23.484375 L 17.109375 -23.484375 L 17.109375 0 L 1.28125 0 L 1.28125 -45.828125 L 17.109375 -45.828125 L 17.109375 -36.65625 L 22.84375 -36.65625 L 22.84375 -45.828125 L 38.671875 -45.828125 Z M 38.671875 0 "/></g></g></g><g fill="#ffffff" fill-opacity="1"><g transform="translate(186.420181, 267.863057)"><g><path d="M 17.109375 0 L 1.28125 0 L 1.28125 -45.828125 L 17.109375 -45.828125 Z M 17.109375 0 "/></g></g></g><g fill="#ffffff" fill-opacity="1"><g transform="translate(213.562466, 267.863057)"><g><path d="M 29.9375 0 L 1.28125 0 L 1.28125 -45.828125 L 17.046875 -45.828125 L 17.046875 -14.171875 L 29.9375 -14.171875 Z M 29.9375 0 "/></g></g></g><g fill="#ffffff" fill-opacity="1"><g transform="translate(253.523928, 267.863057)"><g><path d="M 31.515625 -17.109375 L 19.1875 -17.109375 L 19.1875 -28.640625 L 31.515625 -28.640625 Z M 37.875 0 L 1.28125 0 L 1.28125 -45.828125 L 37.875 -45.828125 L 37.875 -31.65625 L 17.046875 -31.65625 L 17.046875 -14.171875 L 37.875 -14.171875 Z M 37.875 0 "/></g></g></g><path stroke-linecap="butt" transform="matrix(0.68861, 0, 0, 0.68861, 78.926619, 275.674459)" fill="none" stroke-linejoin="miter" d="M 46.355736 38.144866 L 47.013765 48.883206 L 17.981106 48.883206 L 17.981106 0.881182 L 46.060758 1.771789 L 45.697708 12.759726 L 30.285099 12.583874 L 30.285099 18.5742 L 40.246285 19.175501 L 40.246285 29.618863 L 30.228373 29.017561 L 30.154628 37.237241 Z M 80.017283 25.182845 L 89.921742 43.125459 L 89.68349 45.587392 L 79.722305 49.178184 L 72.637156 37.605964 L 66.397234 49.291637 L 56.021944 46.058223 L 54.825013 43.653016 L 64.610347 25.358697 L 55.057592 10.416919 L 55.420642 7.603281 L 64.842925 1.113761 L 72.035855 12.27755 L 78.349522 1.244232 L 88.968736 7.121105 L 89.201315 10.18434 Z M 97.721645 1.113761 L 131.445591 1.113761 L 130.901016 12.816453 L 121.36528 13.241902 L 120.049223 47.975581 L 107.506979 49.178184 L 107.801957 13.185175 L 97.778372 12.703 Z M 170.734414 35.626206 L 167.614452 35.977911 L 171.817891 44.560641 L 170.796813 46.597125 L 161.5674 49.002332 L 154.902028 36.82881 L 151.957919 36.942263 L 151.413344 47.799728 L 139.239822 48.826479 L 139.239822 0.881182 L 170.677687 2.79854 L 173.020494 5.141348 L 173.082894 31.59862 Z M 160.421523 25.53455 L 160.483922 12.101698 L 152.559221 11.324544 L 152.264242 26.135851 Z M 209.257427 38.144866 L 209.915455 48.883206 L 180.882797 48.883206 L 180.882797 0.881182 L 208.962449 1.771789 L 208.599399 12.759726 L 193.18679 12.583874 L 193.18679 18.5742 L 203.147976 19.175501 L 203.147976 29.618863 L 193.130063 29.017561 L 193.056319 37.237241 Z M 257.372904 1.306632 L 257.917479 48.883206 L 245.318508 48.576882 L 244.365501 21.461582 L 237.700129 31.422768 L 231.460207 21.824632 L 230.495855 48.40103 L 217.721032 48.883206 L 218.37906 0.881182 L 231.04043 1.057035 L 237.700129 11.863446 L 244.115905 1.113761 Z M 294.097685 38.144866 L 294.755714 48.883206 L 265.723055 48.883206 L 265.723055 0.881182 L 293.802707 1.771789 L 293.439657 12.759726 L 278.027048 12.583874 L 278.027048 18.5742 L 287.988234 19.175501 L 287.988234 29.618863 L 277.970321 29.017561 L 277.896577 37.237241 Z M 294.097685 38.144866 " stroke="#ffffff" stroke-width="3.1875" stroke-opacity="1" stroke-miterlimit="4"/><g fill="#ffffff" fill-opacity="1"><g transform="translate(340.091025, 254.433259)"><g><path d="M 60.328125 -55.25 L 44.96875 -55.25 L 44.96875 -0.109375 L 17.34375 -0.109375 L 17.34375 -55.25 L 1.875 -55.25 L 1.875 -80.0625 L 60.328125 -80.0625 Z M 60.328125 -55.25 "/></g></g></g><g fill="#ffffff" fill-opacity="1"><g transform="translate(402.292853, 254.433259)"><g><path d="M 67.1875 -29.59375 C 67.1875 -20.664062 63.984375 -13.015625 57.578125 -6.640625 C 51.171875 -0.273438 43.503906 2.90625 34.578125 2.90625 C 25.648438 2.90625 17.96875 -0.273438 11.53125 -6.640625 C 5.09375 -13.015625 1.875 -20.664062 1.875 -29.59375 L 1.875 -80.0625 L 29.078125 -80.0625 L 29.078125 -31.15625 C 29.078125 -29.632812 29.59375 -28.351562 30.625 -27.3125 C 31.664062 -26.269531 32.945312 -25.75 34.46875 -25.75 C 36 -25.75 37.28125 -26.269531 38.3125 -27.3125 C 39.351562 -28.351562 39.875 -29.632812 39.875 -31.15625 L 39.875 -80.0625 L 67.1875 -80.0625 Z M 67.1875 -29.59375 "/></g></g></g><g fill="#ffffff" fill-opacity="1"><g transform="translate(471.348309, 254.433259)"><g><path d="M 92.625 -9.140625 L 72.484375 9.65625 L 45.171875 -19.828125 L 29.1875 -19.828125 L 29.1875 0 L 1.875 0 L 1.875 -80.0625 L 50.359375 -80.0625 C 60.328125 -80.0625 68.617188 -77.410156 75.234375 -72.109375 C 81.847656 -66.816406 85.15625 -59.429688 85.15625 -49.953125 C 85.15625 -40.671875 81.863281 -33.296875 75.28125 -27.828125 Z M 53.3125 -45.375 C 54.664062 -46.488281 55.34375 -48.015625 55.34375 -49.953125 C 55.34375 -51.890625 54.664062 -53.410156 53.3125 -54.515625 C 51.96875 -55.617188 50.257812 -56.171875 48.1875 -56.171875 L 29.1875 -56.171875 L 29.1875 -43.71875 L 48.1875 -43.71875 C 50.257812 -43.71875 51.96875 -44.269531 53.3125 -45.375 Z M 53.3125 -45.375 "/></g></g></g><g fill="#ffffff" fill-opacity="1"><g transform="translate(565.845254, 254.433259)"><g><path d="M 29.59375 0 L 1.875 0 L 1.875 -80.0625 L 29.59375 -80.0625 Z M 29.59375 0 "/></g></g></g><g fill="#ffffff" fill-opacity="1"><g transform="translate(597.309635, 254.433259)"><g><path d="M 59.5 -55.25 L 34.6875 -55.25 C 40.632812 -52.894531 45.5625 -48.269531 49.46875 -41.375 C 53.382812 -34.488281 55.34375 -27.132812 55.34375 -19.3125 C 55.34375 -12.320312 53.679688 -5.882812 50.359375 0 L 1.875 0 L 1.875 -24.71875 L 27.109375 -24.71875 C 21.078125 -27.070312 16.050781 -31.691406 12.03125 -38.578125 C 8.019531 -45.460938 6.015625 -52.851562 6.015625 -60.75 C 6.015625 -67.945312 7.675781 -74.382812 11 -80.0625 L 59.5 -80.0625 Z M 59.5 -55.25 "/></g></g></g><g fill="#ffffff" fill-opacity="1"><g transform="translate(658.680714, 254.433259)"><g><path d="M 90.453125 0 L 62.625 0 L 62.625 -27.203125 L 46.109375 3.953125 L 29.703125 -27.203125 L 29.703125 0 L 1.875 0 L 1.875 -80.0625 L 29.390625 -80.0625 L 46.109375 -52.75 L 62.921875 -80.0625 L 90.453125 -80.0625 Z M 90.453125 0 "/></g></g></g><g fill="#ffffff" fill-opacity="1"><g transform="translate(750.996954, 254.433259)"><g><path d="M 80.375 -71.234375 C 89.375 -62.648438 93.875 -52.300781 93.875 -40.1875 C 93.875 -28.070312 89.375 -17.722656 80.375 -9.140625 C 71.375 -0.554688 60.539062 3.734375 47.875 3.734375 C 35.207031 3.734375 24.375 -0.554688 15.375 -9.140625 C 6.375 -17.722656 1.875 -28.070312 1.875 -40.1875 C 1.875 -52.300781 6.375 -62.648438 15.375 -71.234375 C 24.375 -79.816406 35.207031 -84.109375 47.875 -84.109375 C 60.539062 -84.109375 71.375 -79.816406 80.375 -71.234375 Z M 57.78125 -28.921875 C 60.519531 -31.585938 61.890625 -34.789062 61.890625 -38.53125 C 61.890625 -42.269531 60.519531 -45.46875 57.78125 -48.125 C 55.050781 -50.789062 51.75 -52.125 47.875 -52.125 C 44 -52.125 40.691406 -50.789062 37.953125 -48.125 C 35.222656 -45.46875 33.859375 -42.269531 33.859375 -38.53125 C 33.859375 -34.789062 35.222656 -31.585938 37.953125 -28.921875 C 40.691406 -26.253906 44 -24.921875 47.875 -24.921875 C 51.75 -24.921875 55.050781 -26.253906 57.78125 -28.921875 Z M 57.78125 -28.921875 "/></g></g></g><g fill="#ffffff" fill-opacity="1"><g transform="translate(341.29804, 335.550793)"><g><path d="M 0.953125 0 L 6.21875 -54.5 L 24.6875 -54.5 L 29.890625 0 L 19.546875 0 L 18.78125 -8.8125 L 12.1875 -8.8125 L 11.546875 0 Z M 13.015625 -17.515625 L 17.953125 -17.515625 L 15.546875 -45.234375 L 15.03125 -45.234375 Z M 13.015625 -17.515625 "/></g></g></g><g fill="#ffffff" fill-opacity="1"><g transform="translate(371.75639, 335.550793)"><g><path d="M 2.40625 0 L 2.40625 -54.5 L 13.328125 -54.5 L 13.328125 -9.265625 L 24.5625 -9.265625 L 24.5625 0 Z M 2.40625 0 "/></g></g></g><g fill="#ffffff" fill-opacity="1"><g transform="translate(396.630704, 335.550793)"><g/></g></g><g fill="#ffffff" fill-opacity="1"><g transform="translate(411.161857, 335.550793)"><g><path d="M 0.953125 0 L 6.21875 -54.5 L 24.6875 -54.5 L 29.890625 0 L 19.546875 0 L 18.78125 -8.8125 L 12.1875 -8.8125 L 11.546875 0 Z M 13.015625 -17.515625 L 17.953125 -17.515625 L 15.546875 -45.234375 L 15.03125 -45.234375 Z M 13.015625 -17.515625 "/></g></g></g><g fill="#ffffff" fill-opacity="1"><g transform="translate(441.62021, 335.550793)"><g><path d="M 2.40625 0 L 2.40625 -54.5 L 13.328125 -54.5 L 13.328125 -9.265625 L 24.5625 -9.265625 L 24.5625 0 Z M 2.40625 0 "/></g></g></g><g fill="#ffffff" fill-opacity="1"><g transform="translate(466.494521, 335.550793)"><g><path d="M 15.109375 0.5 C 11.128906 0.5 7.941406 -0.742188 5.546875 -3.234375 C 3.160156 -5.734375 1.96875 -9.160156 1.96875 -13.515625 L 1.96875 -38.640625 C 1.96875 -44.054688 3.046875 -48.140625 5.203125 -50.890625 C 7.359375 -53.640625 10.742188 -55.015625 15.359375 -55.015625 C 19.378906 -55.015625 22.613281 -53.914062 25.0625 -51.71875 C 27.519531 -49.519531 28.75 -46.347656 28.75 -42.203125 L 28.75 -32.8125 L 17.890625 -32.8125 L 17.890625 -40.859375 C 17.890625 -42.429688 17.695312 -43.507812 17.3125 -44.09375 C 16.9375 -44.6875 16.285156 -44.984375 15.359375 -44.984375 C 14.378906 -44.984375 13.707031 -44.644531 13.34375 -43.96875 C 12.988281 -43.289062 12.8125 -42.296875 12.8125 -40.984375 L 12.8125 -13.640625 C 12.8125 -12.203125 13.023438 -11.15625 13.453125 -10.5 C 13.878906 -9.84375 14.515625 -9.515625 15.359375 -9.515625 C 17.046875 -9.515625 17.890625 -10.890625 17.890625 -13.640625 L 17.890625 -23.484375 L 28.875 -23.484375 L 28.875 -13.203125 C 28.875 -4.066406 24.285156 0.5 15.109375 0.5 Z M 15.109375 0.5 "/></g></g></g><g fill="#ffffff" fill-opacity="1"><g transform="translate(496.254861, 335.550793)"><g><path d="M 0.953125 0 L 6.21875 -54.5 L 24.6875 -54.5 L 29.890625 0 L 19.546875 0 L 18.78125 -8.8125 L 12.1875 -8.8125 L 11.546875 0 Z M 13.015625 -17.515625 L 17.953125 -17.515625 L 15.546875 -45.234375 L 15.03125 -45.234375 Z M 13.015625 -17.515625 "/></g></g></g><g fill="#ffffff" fill-opacity="1"><g transform="translate(526.713207, 335.550793)"><g><path d="M 2.40625 0 L 2.40625 -54.5 L 13.640625 -54.5 L 18.65625 -28.421875 L 18.65625 -54.5 L 29.1875 -54.5 L 29.1875 0 L 18.53125 0 L 13.078125 -27.28125 L 13.078125 0 Z M 2.40625 0 "/></g></g></g><g fill="#ffffff" fill-opacity="1"><g transform="translate(557.996466, 335.550793)"><g><path d="M 15.109375 0.5 C 11.128906 0.5 7.941406 -0.742188 5.546875 -3.234375 C 3.160156 -5.734375 1.96875 -9.160156 1.96875 -13.515625 L 1.96875 -38.640625 C 1.96875 -44.054688 3.046875 -48.140625 5.203125 -50.890625 C 7.359375 -53.640625 10.742188 -55.015625 15.359375 -55.015625 C 19.378906 -55.015625 22.613281 -53.914062 25.0625 -51.71875 C 27.519531 -49.519531 28.75 -46.347656 28.75 -42.203125 L 28.75 -32.8125 L 17.890625 -32.8125 L 17.890625 -40.859375 C 17.890625 -42.429688 17.695312 -43.507812 17.3125 -44.09375 C 16.9375 -44.6875 16.285156 -44.984375 15.359375 -44.984375 C 14.378906 -44.984375 13.707031 -44.644531 13.34375 -43.96875 C 12.988281 -43.289062 12.8125 -42.296875 12.8125 -40.984375 L 12.8125 -13.640625 C 12.8125 -12.203125 13.023438 -11.15625 13.453125 -10.5 C 13.878906 -9.84375 14.515625 -9.515625 15.359375 -9.515625 C 17.046875 -9.515625 17.890625 -10.890625 17.890625 -13.640625 L 17.890625 -23.484375 L 28.875 -23.484375 L 28.875 -13.203125 C 28.875 -4.066406 24.285156 0.5 15.109375 0.5 Z M 15.109375 0.5 "/></g></g></g><g fill="#ffffff" fill-opacity="1"><g transform="translate(587.756805, 335.550793)"><g><path d="M 2.40625 0 L 2.40625 -54.5 L 24.234375 -54.5 L 24.234375 -43.96875 L 13.515625 -43.96875 L 13.515625 -33.375 L 23.796875 -33.375 L 23.796875 -23.09375 L 13.515625 -23.09375 L 13.515625 -10.59375 L 24.9375 -10.59375 L 24.9375 0 Z M 2.40625 0 "/></g></g></g><g fill="#ffffff" fill-opacity="1"><g transform="translate(613.582948, 335.550793)"><g/></g></g><g fill="#ffffff" fill-opacity="1"><g transform="translate(628.114102, 335.550793)"><g><path d="M 2.40625 -54.5 L 17.453125 -54.5 C 21.335938 -54.5 24.253906 -53.421875 26.203125 -51.265625 C 28.148438 -49.109375 29.144531 -45.914062 29.1875 -41.6875 L 29.3125 -16.1875 C 29.351562 -10.8125 28.421875 -6.769531 26.515625 -4.0625 C 24.617188 -1.351562 21.46875 0 17.0625 0 L 2.40625 0 Z M 15.296875 -9.640625 C 17.285156 -9.640625 18.28125 -10.613281 18.28125 -12.5625 L 18.28125 -40.671875 C 18.28125 -41.898438 18.179688 -42.820312 17.984375 -43.4375 C 17.796875 -44.050781 17.445312 -44.460938 16.9375 -44.671875 C 16.4375 -44.878906 15.65625 -44.984375 14.59375 -44.984375 L 13.390625 -44.984375 L 13.390625 -9.640625 Z M 15.296875 -9.640625 "/></g></g></g><g fill="#ffffff" fill-opacity="1"><g transform="translate(659.080101, 335.550793)"><g><path d="M 2.40625 0 L 2.40625 -54.5 L 24.234375 -54.5 L 24.234375 -43.96875 L 13.515625 -43.96875 L 13.515625 -33.375 L 23.796875 -33.375 L 23.796875 -23.09375 L 13.515625 -23.09375 L 13.515625 -10.59375 L 24.9375 -10.59375 L 24.9375 0 Z M 2.40625 0 "/></g></g></g><g fill="#ffffff" fill-opacity="1"><g transform="translate(684.906244, 335.550793)"><g/></g></g><g fill="#ffffff" fill-opacity="1"><g transform="translate(699.437398, 335.550793)"><g><path d="M 7.109375 0 L 7.109375 -44.03125 L 0.640625 -44.03125 L 0.640625 -54.5 L 24.5 -54.5 L 24.5 -44.03125 L 18.015625 -44.03125 L 18.015625 0 Z M 7.109375 0 "/></g></g></g><g fill="#ffffff" fill-opacity="1"><g transform="translate(724.248262, 335.550793)"><g><path d="M 15.421875 0.5 C 11.015625 0.5 7.671875 -0.835938 5.390625 -3.515625 C 3.109375 -6.203125 1.96875 -9.976562 1.96875 -14.84375 L 1.96875 -40.796875 C 1.96875 -45.492188 3.109375 -49.035156 5.390625 -51.421875 C 7.671875 -53.816406 11.015625 -55.015625 15.421875 -55.015625 C 19.816406 -55.015625 23.15625 -53.816406 25.4375 -51.421875 C 27.726562 -49.035156 28.875 -45.492188 28.875 -40.796875 L 28.875 -14.84375 C 28.875 -9.9375 27.726562 -6.148438 25.4375 -3.484375 C 23.15625 -0.828125 19.816406 0.5 15.421875 0.5 Z M 15.421875 -9.515625 C 16.390625 -9.515625 17.039062 -9.9375 17.375 -10.78125 C 17.71875 -11.632812 17.890625 -12.820312 17.890625 -14.34375 L 17.890625 -40.984375 C 17.890625 -42.171875 17.726562 -43.132812 17.40625 -43.875 C 17.09375 -44.613281 16.453125 -44.984375 15.484375 -44.984375 C 13.660156 -44.984375 12.75 -43.609375 12.75 -40.859375 L 12.75 -14.28125 C 12.75 -12.707031 12.9375 -11.519531 13.3125 -10.71875 C 13.695312 -9.914062 14.398438 -9.515625 15.421875 -9.515625 Z M 15.421875 -9.515625 "/></g></g></g><g fill="#ffffff" fill-opacity="1"><g transform="translate(754.770068, 335.550793)"><g><path d="M 2.40625 -54.5 L 17.453125 -54.5 C 21.335938 -54.5 24.253906 -53.421875 26.203125 -51.265625 C 28.148438 -49.109375 29.144531 -45.914062 29.1875 -41.6875 L 29.3125 -16.1875 C 29.351562 -10.8125 28.421875 -6.769531 26.515625 -4.0625 C 24.617188 -1.351562 21.46875 0 17.0625 0 L 2.40625 0 Z M 15.296875 -9.640625 C 17.285156 -9.640625 18.28125 -10.613281 18.28125 -12.5625 L 18.28125 -40.671875 C 18.28125 -41.898438 18.179688 -42.820312 17.984375 -43.4375 C 17.796875 -44.050781 17.445312 -44.460938 16.9375 -44.671875 C 16.4375 -44.878906 15.65625 -44.984375 14.59375 -44.984375 L 13.390625 -44.984375 L 13.390625 -9.640625 Z M 15.296875 -9.640625 "/></g></g></g><g fill="#ffffff" fill-opacity="1"><g transform="translate(785.736067, 335.550793)"><g><path d="M 15.421875 0.5 C 11.015625 0.5 7.671875 -0.835938 5.390625 -3.515625 C 3.109375 -6.203125 1.96875 -9.976562 1.96875 -14.84375 L 1.96875 -40.796875 C 1.96875 -45.492188 3.109375 -49.035156 5.390625 -51.421875 C 7.671875 -53.816406 11.015625 -55.015625 15.421875 -55.015625 C 19.816406 -55.015625 23.15625 -53.816406 25.4375 -51.421875 C 27.726562 -49.035156 28.875 -45.492188 28.875 -40.796875 L 28.875 -14.84375 C 28.875 -9.9375 27.726562 -6.148438 25.4375 -3.484375 C 23.15625 -0.828125 19.816406 0.5 15.421875 0.5 Z M 15.421875 -9.515625 C 16.390625 -9.515625 17.039062 -9.9375 17.375 -10.78125 C 17.71875 -11.632812 17.890625 -12.820312 17.890625 -14.34375 L 17.890625 -40.984375 C 17.890625 -42.171875 17.726562 -43.132812 17.40625 -43.875 C 17.09375 -44.613281 16.453125 -44.984375 15.484375 -44.984375 C 13.660156 -44.984375 12.75 -43.609375 12.75 -40.859375 L 12.75 -14.28125 C 12.75 -12.707031 12.9375 -11.519531 13.3125 -10.71875 C 13.695312 -9.914062 14.398438 -9.515625 15.421875 -9.515625 Z M 15.421875 -9.515625 "/></g></g></g><g fill="#ffffff" fill-opacity="1"><g transform="translate(816.257873, 335.550793)"><g><path d="M 15.359375 0.5 C 10.410156 0.5 6.832031 -0.722656 4.625 -3.171875 C 2.425781 -5.628906 1.328125 -9.582031 1.328125 -15.03125 L 1.328125 -20.375 L 12.0625 -20.375 L 12.0625 -13.578125 C 12.0625 -10.867188 12.925781 -9.515625 14.65625 -9.515625 C 15.625 -9.515625 16.300781 -9.800781 16.6875 -10.375 C 17.070312 -10.945312 17.265625 -11.910156 17.265625 -13.265625 C 17.265625 -15.035156 17.050781 -16.503906 16.625 -17.671875 C 16.195312 -18.835938 15.65625 -19.8125 15 -20.59375 C 14.34375 -21.375 13.171875 -22.585938 11.484375 -24.234375 L 6.796875 -28.9375 C 3.148438 -32.488281 1.328125 -36.421875 1.328125 -40.734375 C 1.328125 -45.390625 2.394531 -48.929688 4.53125 -51.359375 C 6.664062 -53.796875 9.785156 -55.015625 13.890625 -55.015625 C 18.796875 -55.015625 22.328125 -53.710938 24.484375 -51.109375 C 26.648438 -48.503906 27.734375 -44.429688 27.734375 -38.890625 L 16.625 -38.890625 L 16.5625 -42.640625 C 16.5625 -43.359375 16.359375 -43.925781 15.953125 -44.34375 C 15.554688 -44.769531 15 -44.984375 14.28125 -44.984375 C 13.4375 -44.984375 12.800781 -44.75 12.375 -44.28125 C 11.945312 -43.820312 11.734375 -43.191406 11.734375 -42.390625 C 11.734375 -40.609375 12.75 -38.765625 14.78125 -36.859375 L 21.125 -30.78125 C 22.601562 -29.34375 23.828125 -27.976562 24.796875 -26.6875 C 25.773438 -25.394531 26.5625 -23.867188 27.15625 -22.109375 C 27.75 -20.359375 28.046875 -18.273438 28.046875 -15.859375 C 28.046875 -10.492188 27.0625 -6.425781 25.09375 -3.65625 C 23.125 -0.882812 19.878906 0.5 15.359375 0.5 Z M 15.359375 0.5 "/></g></g></g></svg>